<svg width="65" height="64" viewBox="0 0 65 64" fill="none" xmlns="http://www.w3.org/2000/svg">
<path d="M29.0424 14.7474C26.989 15.5201 24.9603 16.2836 22.9548 17.037C22.8578 17.2371 22.7885 17.4218 22.7486 17.5934C26.491 16.1114 29.975 14.7671 33.1982 13.5598C33.2424 13.5191 33.3021 13.4128 33.374 13.2375C33.3985 13.1812 33.4018 13.1472 33.3862 13.1343C33.374 13.1255 33.336 13.1343 33.2702 13.1567C31.8678 13.6841 30.4768 14.2075 29.097 14.7268L29.0424 14.7474Z" fill="white"/>
<path d="M28.5469 14.0683C28.6062 13.9423 28.7261 13.8234 28.9063 13.7108C29.0923 13.5925 29.297 13.5133 29.5216 13.4734C29.6105 13.4587 29.6617 13.4527 29.6741 13.4586C29.6745 13.4587 29.6748 13.4589 29.675 13.4591C29.6754 13.4595 29.6761 13.4605 29.676 13.4611C29.6759 13.4614 29.6758 13.4617 29.6757 13.4621C29.6755 13.4626 29.6752 13.4632 29.6749 13.4639C29.6704 13.4734 29.6257 13.4975 29.539 13.5321C29.1198 13.7043 28.8854 13.8396 28.837 13.9425C28.7919 14.0382 28.8144 14.1075 28.9036 14.1495C28.9529 14.1727 29.0045 14.1804 29.0571 14.1713C29.0949 14.1659 29.1193 14.164 29.1274 14.1646C29.1303 14.1724 29.1345 14.1781 29.1412 14.1845C29.1341 14.1927 29.1164 14.2164 29.0897 14.2554C28.9464 14.4424 28.7947 14.4979 28.6303 14.4205C28.4948 14.3567 28.4662 14.2394 28.5469 14.0683Z" fill="white"/>
<path fill-rule="evenodd" clip-rule="evenodd" d="M35.9843 30.1611C36.525 30.1611 37.0504 29.9513 37.5603 29.5323C37.7074 29.4077 37.7825 28.957 37.7825 28.1752C37.7825 27.7003 37.6608 25.7929 37.416 22.4499C37.1725 19.1074 37.0537 17.1374 37.0537 16.5366C37.0537 15.9925 36.9666 15.5485 36.7973 15.1949C36.7973 15.0044 36.9532 14.5353 37.2722 13.7882C37.3068 13.6973 37.338 13.6531 37.3727 13.6531C37.4073 13.6531 37.4473 13.7035 37.4915 13.804C37.5824 13.9975 37.7917 14.5295 38.1198 15.3988C38.4579 16.3052 38.6643 16.8589 38.7298 17.0619C38.764 17.2341 38.7831 17.3529 38.7831 17.418C38.7831 17.6686 38.5455 17.5222 38.0698 16.9777C38.0139 16.8997 37.9855 16.9335 37.9855 17.0811C37.9855 17.1149 38.0923 18.6004 38.3078 21.5427C38.5205 24.4824 38.6297 26.2365 38.6297 26.8023C38.6297 28.4412 38.3358 29.7329 37.7483 30.6705C37.2501 31.4581 36.6651 31.855 35.9939 31.8588V31.8667C35.7591 31.9005 35.5248 31.9017 35.2905 31.8667V31.8588C35.0681 31.8584 34.8471 31.8331 34.6275 31.7827C34.6805 32.5066 34.7411 33.3331 34.8096 34.2621C35.1162 38.4204 35.2689 40.7128 35.2689 41.1411C35.2689 42.4548 35.066 43.6145 34.6595 44.6216C34.5747 44.8252 34.5062 44.9716 34.4559 45.0626C34.3753 45.1909 34.3277 45.2065 34.312 45.1122C34.2877 45.0157 34.2966 44.8028 34.3372 44.4743C34.3874 44.021 34.4124 43.4957 34.4124 42.8951C34.4124 42.3604 34.2469 39.7655 33.9151 35.1089C33.8126 33.6697 33.7263 32.4302 33.6559 31.3908C33.421 31.2545 33.1876 31.0884 32.9557 30.8923C32.3191 30.2955 31.6804 29.7014 31.0394 29.1051L30.8264 28.9069C30.7355 28.829 30.6792 28.7881 30.6572 28.7881C30.6288 28.7881 30.6505 28.8727 30.7259 29.0412C30.9857 29.6416 31.1133 30.0697 31.1133 30.3236C31.1133 31.2805 30.8385 32.0026 30.2848 32.4938C29.8879 32.8503 28.9936 33.3251 27.5956 33.9134C26.738 34.2803 26.0951 34.5676 25.6707 34.7686C24.8235 35.163 24.2385 35.4853 23.9225 35.735C23.3409 36.1882 22.497 37.055 21.3867 38.3308C20.7272 39.0934 20.0609 39.4782 19.3951 39.4782C19.202 39.4782 19.0174 39.4481 18.8413 39.388C18.7951 39.586 18.7495 39.784 18.7051 39.9821C18.5924 40.5046 18.5361 40.8894 18.5361 41.1363C18.5361 41.9962 18.8238 42.7873 19.3993 43.5095C20.1811 44.4729 21.3103 44.9541 22.7923 44.9541C24.0898 44.9541 25.4686 44.648 26.9291 44.0381C28.105 43.5501 29.1616 42.9407 30.1 42.2059C30.9469 41.5489 31.3725 41.08 31.3725 40.7984C31.3725 40.7516 31.1974 40.3858 30.8472 39.6951C30.4278 38.8814 30.1157 38.0875 29.9121 37.3179C29.8341 37.0587 29.7404 36.8836 29.6339 36.7927C29.5274 36.7024 29.4745 36.6081 29.4745 36.5049C29.4745 36.4269 29.5525 36.0082 29.7092 35.2515C29.7337 35.1137 29.7682 35.048 29.8123 35.048C29.8593 35.048 29.9155 35.0791 29.9814 35.1478C30.1964 35.3859 30.6592 35.8548 31.3725 36.5551C31.4851 36.6711 31.5414 36.7614 31.5414 36.8273C31.5414 36.9086 31.4756 36.9459 31.3378 36.9459C31.1913 36.9459 30.9721 36.9025 30.6783 36.8117C30.7001 36.9025 30.9382 37.3993 31.3882 38.3032C31.7511 39.0381 31.9323 39.6727 31.9323 40.2046C31.9323 41.2551 31.6948 42.0525 31.2191 42.5967C30.8872 42.983 30.4861 43.3642 30.0161 43.74C29.9815 43.9714 29.7986 44.5339 29.4622 45.4336C29.0903 46.4372 28.906 47.231 28.906 47.8126C28.906 48.2596 29.009 48.616 29.2187 48.882C29.438 49.1697 29.7474 49.3169 30.141 49.3169C30.8385 49.3169 31.5423 48.96 32.2548 48.2537C32.4934 47.9685 32.733 47.6842 32.9724 47.4L32.9741 47.398C33.186 47.1466 33.3979 46.8951 33.609 46.6431C34.1969 45.9802 34.969 45.3894 35.9259 44.8699C36.4858 44.5635 37.4581 44.1194 38.8407 43.5378V43.5428L38.8465 43.5378L40.2257 42.9529C40.0289 42.4121 39.9318 41.8593 39.9318 41.2993C39.9318 40.4517 40.0568 39.7696 40.307 39.2539C40.5601 38.741 40.892 38.485 41.3047 38.485C41.6704 38.485 42.0143 38.7886 42.3366 39.4015C42.6239 39.9422 42.7711 40.4363 42.7711 40.8774C42.7711 41.996 42.4425 42.9158 41.7863 43.6316C42.252 44.1136 42.8086 44.3546 43.459 44.3546L43.4619 44.3567V44.3546C44.0031 44.3546 44.5284 44.1449 45.0383 43.7259C45.1847 43.6004 45.2601 43.1505 45.2601 42.3688C45.2601 41.893 45.0071 38.1661 44.5034 31.1896C44.0002 24.2102 43.7496 20.4261 43.7496 19.8386C43.7496 19.2946 43.6533 18.8472 43.4619 18.497C43.4619 18.2943 43.6212 17.8245 43.9435 17.0902C43.9781 16.9994 44.0123 16.9552 44.0469 16.9552C44.0815 16.9552 44.1219 16.9994 44.169 17.0902C44.2591 17.2933 44.4721 17.8245 44.8069 18.685C45.1538 19.5881 45.3598 20.148 45.429 20.364C45.4636 20.5232 45.4819 20.6421 45.4819 20.72C45.4819 20.9677 45.241 20.8172 44.7661 20.2606C44.7098 20.1826 44.6819 20.2172 44.6819 20.364C44.6819 20.3986 44.9195 23.704 45.3944 30.2794C45.8701 36.8586 46.1078 40.43 46.1078 40.9962C46.1078 42.6339 45.8138 43.9256 45.2255 44.8641C44.7252 45.6554 44.1378 46.0523 43.4619 46.0523V46.0494L43.459 46.0523C42.8307 46.0523 42.1894 45.7767 41.5328 45.2264C41.1826 44.9325 40.9074 44.6168 40.7102 44.2762L38.8465 45.0667L38.8407 45.0638C37.9714 45.4357 37.3205 45.7271 36.8923 45.9302C36.0447 46.3246 35.4606 46.646 35.1442 46.8962C34.5625 47.3498 33.7183 48.2162 32.6084 49.492C31.9488 50.2546 31.2825 50.6394 30.6167 50.6394C30.0568 50.6394 29.569 50.3863 29.1499 49.8831C28.7093 49.3578 28.4899 48.7165 28.4899 47.9565C28.4899 46.9306 28.9035 45.597 29.7333 43.9593C29.2088 44.3537 28.6076 44.7418 27.9299 45.1232C26.097 46.1424 24.3896 46.6519 22.8079 46.6519C20.6812 46.6519 19.2181 45.611 18.4147 43.5284C18.2578 43.1219 18.1798 42.6028 18.1798 41.9682C18.1798 41.5489 18.2111 41.1269 18.2795 40.6952C18.3645 40.1749 18.4753 39.7057 18.613 39.2909C18.367 39.1646 18.1388 38.9747 17.9279 38.7215C17.4875 38.1961 17.2683 37.5549 17.2683 36.7948C17.2683 35.9527 17.5467 34.9035 18.1056 33.6485L17.8844 33.8307C17.2397 34.3187 16.652 34.5622 16.1206 34.5622C15.5609 34.5622 15.0729 34.3091 14.6542 33.8057C14.2132 33.2803 13.9939 32.6391 13.9939 31.8791C13.9939 30.8347 14.4228 29.4713 15.2826 27.7925C15.3729 27.6174 15.4421 27.53 15.4916 27.53C15.5168 27.5326 15.5261 27.5578 15.5261 27.5957C15.5261 27.7675 15.3416 28.3524 14.9664 29.356C14.5945 30.3597 14.41 31.1536 14.41 31.736C14.41 32.1763 14.513 32.5332 14.7227 32.8047C14.948 33.0924 15.2576 33.2397 15.645 33.2397C16.2862 33.2397 16.8867 33.03 17.4527 32.6113C18.1469 32.0108 18.8439 31.4102 19.538 30.813C20.7234 29.8079 21.9057 29.0265 23.0827 28.4716C22.9308 27.8686 22.8165 27.2613 22.7399 26.6487C22.7182 26.4831 22.7026 26.3825 22.6897 26.3419C22.6558 26.217 22.5839 26.0827 22.4712 25.9354L22.8527 25.0098C22.9123 24.8564 22.9687 24.7819 23.0121 24.7819C23.0528 24.7819 23.1186 24.8564 23.2156 25.0098L24.1908 26.5707C24.3225 26.7797 24.3849 26.9329 24.3849 27.03C24.3849 27.0986 24.3536 27.1332 24.2852 27.1332C24.1657 27.1332 23.9534 27.0335 23.6473 26.8359C23.6999 27.1951 23.7921 27.6132 23.9246 28.0888L24.0751 28.0206C24.7415 27.7892 25.3136 27.6738 25.7892 27.6738C26.2677 27.6738 26.6492 27.874 26.9273 28.2805C27.2089 28.6835 27.3494 29.2182 27.3494 29.8778C27.3494 30.4282 27.2306 30.8821 26.9931 31.2384C26.7549 31.5947 26.4395 31.7731 26.0519 31.7731C25.5137 31.7731 24.9946 31.5106 24.4912 30.9914C24.1159 30.6005 23.8376 30.1812 23.6504 29.734C22.7309 30.1004 21.6736 30.7539 20.4888 31.6918C19.8605 32.2052 19.2358 32.7183 18.6121 33.2315C18.5214 33.5053 18.3978 33.8519 18.2408 34.272C17.8688 35.2755 17.6844 36.0694 17.6844 36.651C17.6844 37.0984 17.7875 37.4552 17.9972 37.7204C18.2158 38.0081 18.5258 38.1557 18.9193 38.1557C19.617 38.1557 20.3207 37.7992 21.0332 37.0921C21.2366 36.8495 21.4406 36.6074 21.6445 36.3653L21.6454 36.3643C21.8929 36.0704 22.1405 35.7766 22.387 35.4819C22.9752 34.819 23.7478 34.2278 24.7042 33.7087C25.2612 33.4044 26.2256 32.9632 27.5956 32.3862V32.3837C29.0716 31.7591 30.0413 31.2738 30.5041 30.9332C30.6384 30.8336 30.6851 30.6989 30.6384 30.5267C30.3911 29.6228 29.3722 28.4187 27.5798 26.9152C25.9285 25.5826 24.2769 24.2536 22.6253 22.9246L22.6135 22.915L22.6127 22.9144L22.4396 22.7751C22.3799 22.7247 22.3486 22.5375 22.3486 22.2152C22.3486 21.7966 22.3927 21.3651 22.4832 20.9177C22.58 20.4203 22.6988 20.1047 22.8397 19.9767C23.8061 19.1036 25.8695 17.9466 29.0278 16.5053C32.2269 15.0415 34.3407 14.3102 35.3635 14.3102C35.6666 14.3102 35.8759 14.3698 35.9884 14.4911C36.1043 14.6133 36.1606 14.8197 36.1606 15.1136C36.1606 15.7861 35.757 16.6241 34.957 17.6252C34.809 17.7928 34.6605 17.9605 34.5115 18.1285L34.5066 18.1341L34.506 18.1348C34.3542 18.3061 34.202 18.4779 34.0497 18.6504C33.5686 19.2104 33.243 19.6669 33.0745 20.0171C32.9619 20.2548 32.8898 20.3736 32.8615 20.3736C32.8335 20.3736 32.8494 20.2139 32.9119 19.8983C32.9461 19.7232 33.0804 19.4201 33.3122 18.9911C33.5219 18.5941 33.6778 18.3377 33.7841 18.2189C34.691 17.1899 35.2317 16.5116 35.4131 16.1893C35.4323 16.158 35.4381 16.1242 35.4381 16.0896C35.4381 15.8953 35.185 15.8015 34.6755 15.8015C33.8688 15.8015 31.9546 16.5053 28.9344 17.9129C25.9167 19.3196 23.8495 20.4766 22.7367 21.383C22.6646 21.4464 22.6738 21.4993 22.7709 21.5427C23.7586 22.1493 24.7317 22.7751 25.6886 23.4189C27.99 24.9798 30.0255 26.5183 31.8016 28.0347C32.3395 28.5037 32.8744 28.9761 33.4118 29.451C33.4525 29.4813 33.4932 29.5106 33.5338 29.539C33.4584 28.3533 33.421 27.6478 33.421 27.4232C33.421 26.8761 33.3369 26.4257 33.1679 26.0754C33.1679 25.8536 33.3241 25.3846 33.6402 24.668C33.7089 24.5085 33.7841 24.512 33.8623 24.6747C33.9531 24.8683 34.1621 25.4002 34.4871 26.2695C34.8346 27.1761 35.0349 27.7326 35.0912 27.9423C35.1346 28.1017 35.1596 28.2206 35.1596 28.2986C35.1596 28.5489 34.9188 28.399 34.4376 27.8486C34.3813 27.7699 34.3528 27.8045 34.3528 27.9518C34.3528 27.98 34.4016 28.6743 34.5002 30.0338C34.7634 30.1187 35.0246 30.1612 35.2834 30.1611V30.1577C35.524 30.2007 35.7575 30.2015 35.9843 30.1611ZM26.1266 30.0754C26.3458 30.0754 26.4584 30.0156 26.4584 29.8969C26.4584 29.7218 26.3017 29.5684 25.9895 29.4375C25.7581 29.3431 25.3829 29.3403 24.8636 29.4307C25.1385 29.8596 25.5606 30.0754 26.1266 30.0754ZM42.3395 41.6054C42.3395 41.4182 42.1928 41.1305 41.9051 40.7394C41.5891 40.32 41.3139 40.1136 41.0825 40.1136C40.9074 40.1136 40.7352 40.2203 40.5663 40.4363C40.3979 40.6485 40.3133 40.852 40.3133 41.0454C40.3133 41.2084 40.4042 41.4961 40.5914 41.9026C40.751 42.2587 40.8732 42.4997 40.9637 42.6218C41.2013 42.5093 41.4736 42.35 41.7796 42.1403C42.1519 41.8905 42.3395 41.7121 42.3395 41.6054Z" fill="white"/>
<path d="M39.9787 16.2468C40.1475 16.5971 40.2318 17.0468 40.2318 17.5946C40.2318 18.0634 40.3946 20.6272 40.7257 25.2803C41.0575 29.9362 41.2232 32.5318 41.2232 33.0665C41.2232 33.6671 41.198 34.1924 41.1485 34.6457C41.1079 34.9742 41.0983 35.1864 41.1233 35.2836C41.139 35.3772 41.1859 35.3616 41.2672 35.2333C41.3169 35.143 41.386 34.9959 41.4701 34.793C41.8766 33.7859 42.0802 32.6254 42.0802 31.3125C42.0802 30.8842 41.9268 28.5918 41.6202 24.4328C41.3141 20.277 41.1641 18.1727 41.1641 18.1225C41.1641 17.9759 41.1919 17.9413 41.2482 18.0193C41.7301 18.5697 41.9702 18.7203 41.9702 18.47C41.9702 18.392 41.9459 18.2731 41.9018 18.1137C41.8455 17.904 41.6452 17.3475 41.2984 16.4402C40.9727 15.5709 40.7637 15.0397 40.6729 14.8458C40.5947 14.6834 40.5195 14.6799 40.4509 14.8394C40.1354 15.5554 39.9787 16.0243 39.9787 16.2468Z" fill="white"/>
<path d="M22.4959 34.0757V33.0876C22.6458 33.1406 22.9396 33.1968 23.3713 33.2566C23.8028 33.3164 24.0403 33.3346 24.0872 33.3129C24.1218 33.2973 24.1409 33.2505 24.1409 33.1724V31.9367C24.1409 31.8804 24.1252 31.8491 24.0968 31.8465C23.5653 31.79 23.0402 31.7088 22.5176 31.6056C22.4551 31.5934 22.4205 31.6306 22.4144 31.7209C22.3866 32.0121 22.3799 32.3527 22.3927 32.7436C21.8391 32.675 21.3327 32.597 20.8761 32.5122C20.8136 32.5027 20.779 32.5407 20.7729 32.6283C20.6975 33.3407 20.7036 33.7852 20.7886 33.9569C20.8103 34.0038 21.079 34.0634 21.5953 34.1415C22.1076 34.2168 22.3927 34.2413 22.4422 34.2168C22.4768 34.1978 22.4959 34.1537 22.4959 34.0757Z" fill="white"/>
<path d="M26.4572 42.1967C26.6946 41.8275 26.8133 41.499 26.8133 41.2114C26.8133 40.8205 26.6573 40.6271 26.3479 40.6271C25.9725 40.6271 25.7378 40.8646 25.6346 41.3396C25.619 41.4367 25.6068 41.4963 25.6007 41.518C25.619 41.5242 25.6318 41.5303 25.6441 41.5432C25.6598 41.5364 25.7037 41.5119 25.7689 41.4678C25.8599 41.4054 25.9631 41.3741 26.0757 41.3741C26.2786 41.3741 26.3825 41.4834 26.3825 41.7026C26.3825 41.9368 26.0635 42.3968 25.4317 43.0877C25.3 43.2281 25.2376 43.313 25.2376 43.3347C25.2376 43.3408 25.2376 43.3441 25.2437 43.3441C25.2722 43.3441 25.3625 43.2878 25.5158 43.1814C25.9006 42.9091 26.2134 42.5815 26.4572 42.1967Z" fill="white"/>
<path d="M31.6109 19.3813C31.8484 19.0122 31.967 18.6837 31.967 18.396C31.967 18.0051 31.811 17.8118 31.5016 17.8118C31.1262 17.8118 30.8915 18.0492 30.7883 18.5242C30.7727 18.6213 30.7605 18.6809 30.7544 18.7026C30.7727 18.7089 30.7855 18.7149 30.7979 18.7278C30.8135 18.721 30.8575 18.6965 30.9226 18.6524C31.0136 18.59 31.1168 18.5588 31.2294 18.5588C31.4323 18.5588 31.5362 18.668 31.5362 18.8873C31.5362 19.1215 31.2172 19.5815 30.5854 20.2724C30.4537 20.4127 30.3914 20.4977 30.3914 20.5194C30.3914 20.5255 30.3914 20.5288 30.3974 20.5288C30.4259 20.5288 30.5163 20.4725 30.6695 20.366C31.0543 20.0938 31.3671 19.7661 31.6109 19.3813Z" fill="white"/>
<path d="M31.1622 45.7904C31.0956 46.2242 31.1209 46.5726 31.238 46.8354C31.3971 47.1924 31.6183 47.3055 31.9009 47.1795C32.2438 47.0267 32.3615 46.7143 32.2624 46.2384C32.2372 46.1434 32.224 46.084 32.2208 46.0617C32.2015 46.0634 32.1873 46.0631 32.1708 46.0563C32.1593 46.0689 32.1291 46.1092 32.0876 46.176C32.0298 46.27 31.9483 46.3406 31.8455 46.3864C31.6602 46.469 31.5208 46.4115 31.4315 46.2112C31.3362 45.9973 31.4403 45.4473 31.7361 44.5591C31.7993 44.3773 31.8217 44.2743 31.8128 44.2544C31.8103 44.2489 31.809 44.2459 31.8034 44.2484C31.7774 44.2599 31.7178 44.3481 31.6212 44.5078C31.3806 44.9131 31.2282 45.3397 31.1622 45.7904Z" fill="white"/>
<path d="M35.4906 20.8289C35.7281 20.4598 35.8468 20.1313 35.8468 19.8436C35.8468 19.4527 35.6908 19.2594 35.3814 19.2594C35.006 19.2594 34.7713 19.4969 34.6681 19.9718C34.6524 20.0689 34.6403 20.1285 34.6342 20.1502C34.6524 20.1565 34.6653 20.1626 34.6776 20.1754C34.6933 20.1686 34.7372 20.1441 34.8024 20.1C34.8934 20.0376 34.9966 20.0064 35.1092 20.0064C35.3121 20.0064 35.4159 20.1156 35.4159 20.3349C35.4159 20.5691 35.097 21.0291 34.4652 21.72C34.3335 21.8603 34.2711 21.9453 34.2711 21.967C34.2711 21.9731 34.2711 21.9764 34.2772 21.9764C34.3057 21.9764 34.396 21.9201 34.5493 21.8136C34.934 21.5414 35.2469 21.2137 35.4906 20.8289Z" fill="white"/>
<path d="M15.3268 25.1085C15.2736 25.3446 15.2743 25.5371 15.3287 25.6861C15.4026 25.8885 15.52 25.9591 15.6802 25.9006C15.8746 25.8296 15.9512 25.6622 15.9148 25.3968C15.9046 25.3435 15.8996 25.3104 15.8986 25.298C15.888 25.2982 15.8802 25.2975 15.8714 25.2932C15.8646 25.2996 15.8464 25.3206 15.8211 25.3558C15.7857 25.4053 15.7382 25.441 15.6799 25.4623C15.5748 25.5007 15.5004 25.4637 15.4589 25.3502C15.4146 25.2289 15.4928 24.9304 15.6893 24.4532C15.731 24.3556 15.7472 24.2998 15.7431 24.2886C15.7419 24.2854 15.7413 24.2837 15.7382 24.2849C15.7234 24.2903 15.6873 24.3365 15.6281 24.4206C15.4803 24.6343 15.3803 24.8632 15.3268 25.1085Z" fill="white"/>
<path d="M17.6555 27.26C17.8392 26.9752 17.9307 26.7218 17.9307 26.4998C17.9307 26.1983 17.8099 26.0491 17.5712 26.0491C17.2817 26.0491 17.1011 26.2323 17.0209 26.5987C17.0089 26.6736 16.9995 26.7197 16.9948 26.7365C17.0089 26.7412 17.0189 26.7459 17.0283 26.7558C17.0404 26.7506 17.0744 26.7317 17.1252 26.6976C17.1947 26.6495 17.2743 26.6254 17.3612 26.6254C17.5183 26.6254 17.5979 26.7097 17.5979 26.8788C17.5979 27.0595 17.3518 27.4143 16.8644 27.9473C16.7628 28.0556 16.7147 28.1211 16.7147 28.1379C16.7147 28.1426 16.7147 28.1451 16.7194 28.1451C16.7414 28.1451 16.8116 28.1017 16.9294 28.0196C17.2261 27.8095 17.4675 27.5568 17.6555 27.26Z" fill="white"/>
<path d="M22.9594 44.1305C22.8688 44.2172 22.7765 44.2603 22.6761 44.2603C22.4595 44.2603 22.3509 44.1403 22.3509 43.9023C22.3509 43.6873 22.4513 43.4335 22.6543 43.1382C22.8317 42.8741 22.9987 42.6929 23.1565 42.5985C23.1881 42.581 23.2077 42.581 23.2154 42.6023C23.2253 42.628 23.2175 42.6557 23.1881 42.689C23.068 42.7993 22.9458 42.9489 22.8256 43.1382C22.6898 43.3407 22.6227 43.4907 22.6227 43.5869C22.6838 43.536 22.7547 43.5121 22.8355 43.5121C23.0205 43.5121 23.1132 43.5929 23.1132 43.7583C23.1132 43.9078 23.0619 44.0321 22.9594 44.1305Z" fill="white"/>
<path d="M20.7384 19.4764C20.976 19.1072 21.0954 18.7794 21.0954 18.4917C21.0954 18.1008 20.9387 17.9068 20.6293 17.9068C20.2539 17.9068 20.0192 18.1443 19.916 18.6199C19.9003 18.7163 19.8882 18.7761 19.8821 18.7978C19.9003 18.8039 19.9132 18.8107 19.9255 18.8228C19.9412 18.8167 19.9851 18.7917 20.051 18.7483C20.1413 18.6851 20.2445 18.654 20.3571 18.654C20.5607 18.654 20.6638 18.7638 20.6638 18.9823C20.6638 19.2172 20.3449 19.6765 19.7131 20.3674C19.5814 20.5084 19.519 20.5927 19.519 20.6144C19.519 20.6212 19.519 20.6238 19.5251 20.6238C19.5536 20.6238 19.6439 20.5675 19.7972 20.4617C20.1819 20.1895 20.4948 19.8611 20.7384 19.4764Z" fill="white"/>
<path d="M25.4107 15.5398C25.5921 15.4291 25.7132 15.3115 25.7739 15.1862C25.8564 15.0159 25.829 14.8984 25.6943 14.8331C25.5307 14.7539 25.3784 14.8078 25.2331 14.9932C25.2059 15.0319 25.188 15.0554 25.1808 15.0636C25.1875 15.0701 25.1917 15.0758 25.1945 15.0837C25.2025 15.0843 25.227 15.0827 25.2648 15.0776C25.3175 15.0692 25.369 15.0774 25.4181 15.1011C25.5067 15.1441 25.5285 15.2137 25.4824 15.3089C25.4329 15.4112 25.197 15.544 24.7761 15.7116C24.6889 15.7453 24.644 15.7689 24.6394 15.7783C24.638 15.7813 24.6374 15.7824 24.6401 15.7837C24.6525 15.7897 24.7037 15.7842 24.7928 15.7705C25.0178 15.7331 25.2234 15.6561 25.4107 15.5398Z" fill="white"/>
<path d="M32.0277 34.4656C32.1378 34.4656 32.2391 34.4183 32.3385 34.3231C32.4509 34.2153 32.5072 34.0789 32.5072 33.9149C32.5072 33.7334 32.4054 33.6449 32.2025 33.6449C32.1139 33.6449 32.0361 33.671 31.9691 33.7268C31.9691 33.6214 32.0427 33.4568 32.1917 33.2347C32.3235 33.027 32.4575 32.8629 32.5893 32.742C32.6216 32.7054 32.6301 32.675 32.6193 32.6468C32.6108 32.6234 32.5893 32.6234 32.5546 32.6426C32.3816 32.7462 32.1983 32.945 32.0038 33.2347C31.781 33.5586 31.6709 33.837 31.6709 34.0728C31.6709 34.3339 31.7901 34.4656 32.0277 34.4656Z" fill="white"/>
<path d="M19.4681 36.8897C19.5686 36.8897 19.6609 36.8462 19.7515 36.7599C19.8541 36.6611 19.9054 36.5372 19.9054 36.3875C19.9054 36.2222 19.8127 36.1414 19.6276 36.1414C19.5468 36.1414 19.4759 36.1649 19.4148 36.2162C19.4148 36.1196 19.4818 35.97 19.6178 35.7671C19.7378 35.5781 19.86 35.4286 19.9802 35.3183C20.0097 35.2845 20.0174 35.2571 20.0075 35.2315C19.9999 35.2098 19.9802 35.2098 19.9486 35.2277C19.7909 35.3221 19.6237 35.5033 19.4464 35.7671C19.2434 36.0624 19.143 36.3166 19.143 36.5312C19.143 36.7697 19.2515 36.8897 19.4681 36.8897Z" fill="white"/>
<path d="M37.5786 37.7181C37.5893 37.6942 37.6025 37.6768 37.6133 37.6637C37.6259 37.6576 37.6306 37.6595 37.6306 37.6703C37.6348 37.681 37.6348 37.7008 37.6306 37.7289C37.5266 38.3031 37.3541 38.5905 37.1164 38.5905C36.8614 38.5905 36.7362 38.3791 36.7362 37.9576C36.7362 37.4373 36.8852 36.8926 37.1853 36.3225C37.2612 36.1819 37.3043 36.1088 37.3217 36.1064C37.3226 36.1064 37.3237 36.107 37.3245 36.1078C37.3248 36.1082 37.3254 36.109 37.3256 36.1094L37.3259 36.1107C37.3259 36.1388 37.3043 36.219 37.2612 36.3525C37.0667 36.9469 36.9696 37.3613 36.9696 37.599C36.9696 37.9229 37.0559 38.0874 37.2331 38.0874C37.3343 38.0874 37.4488 37.9642 37.5786 37.7181Z" fill="white"/>
<path d="M16.3524 37.8872C16.3681 37.8466 16.3872 37.8214 16.4026 37.8092C16.415 37.7997 16.4244 37.8031 16.4278 37.8188C16.4339 37.8344 16.4339 37.8622 16.4278 37.9029C16.3898 38.2253 16.2962 38.513 16.1523 38.7694C16.0085 39.0225 15.8523 39.1509 15.6834 39.1509C15.4955 39.1535 15.3549 39.0598 15.258 38.8597C15.1644 38.6629 15.1202 38.3969 15.1331 38.0623C15.1487 37.6558 15.2735 37.134 15.5049 36.4961C15.7024 35.952 15.8775 35.5705 16.0302 35.3514C16.1271 35.2197 16.1836 35.1511 16.1992 35.1485C16.2053 35.1702 16.1808 35.2448 16.1245 35.3764C15.7832 36.1332 15.5707 36.8334 15.4866 37.4713C15.4738 37.5433 15.471 37.6185 15.471 37.6904C15.471 38.2001 15.5959 38.4437 15.8523 38.4219C16.0057 38.403 16.1713 38.2253 16.3524 37.8872Z" fill="white"/>
<path d="M16.9833 21.9227C17.2059 21.9227 17.4305 22.1382 17.6556 22.5691C17.8594 22.9644 17.9996 23.405 18.0815 23.8918L18.0828 23.9008L18.0849 23.9143L18.0872 23.9295C18.0909 23.9531 18.0932 23.9673 18.0932 23.9736C18.1028 23.9853 18.1073 23.9853 18.1119 23.9736C18.1164 23.9645 18.1282 23.9386 18.1449 23.8918C18.2033 23.4725 18.3182 22.9202 18.4869 22.2316C18.648 21.8475 18.8239 21.6555 19.0134 21.6555C19.112 21.6555 19.208 21.7216 19.3061 21.8526C19.3904 21.9669 19.4325 22.0584 19.4325 22.1311C19.4325 22.1875 19.4183 22.2577 19.3884 22.3465C19.3508 22.4659 19.3061 22.5243 19.2547 22.5243C19.2334 22.5243 19.1867 22.4802 19.1165 22.3887C19.0438 22.2972 18.9692 22.253 18.894 22.253C18.7375 22.253 18.5591 22.8008 18.3604 23.8963C18.2969 24.2455 18.2268 24.4915 18.1495 24.6342C18.0956 24.7323 18.0489 24.7816 18.0113 24.7816C17.9762 24.7816 17.96 24.7373 17.96 24.6485C17.96 24.5031 17.8685 24.1586 17.6881 23.618C17.5011 23.0585 17.3767 22.7794 17.3136 22.7794C17.2669 22.7794 17.2364 22.7937 17.2247 22.8242C17.2104 22.8521 17.1728 22.8684 17.1098 22.8684C17.0371 22.8684 16.9437 22.8146 16.8263 22.7093C16.7094 22.6042 16.653 22.5173 16.653 22.4542C16.653 22.4264 16.7003 22.3302 16.7983 22.1662C16.8969 22.002 16.9574 21.9227 16.9833 21.9227Z" fill="white"/>
<path d="M46.73 23.1848C46.73 22.6311 46.6424 22.184 46.4734 21.8459C46.4734 21.618 46.6296 21.1456 46.9485 20.4297C47.0144 20.2702 47.0896 20.2735 47.1676 20.4358C47.2586 20.6298 47.4676 21.1613 47.7961 22.0306C48.1401 22.9377 48.3437 23.4969 48.3993 23.7127C48.4434 23.8635 48.4686 23.9821 48.4686 24.0601C48.4686 24.3195 48.2242 24.1694 47.7431 23.6097C47.6869 23.5411 47.6584 23.5784 47.6584 23.7195C47.6584 23.7725 47.8368 26.2398 48.1903 31.121C48.5431 36.0049 48.7217 38.663 48.7217 39.0912C48.7217 40.4205 48.5188 41.5803 48.1184 42.5689C48.0336 42.7753 47.965 42.9219 47.912 43.0128C47.8333 43.141 47.7866 43.1566 47.7682 43.063C47.7457 42.9659 47.7553 42.7529 47.7961 42.4251C47.8463 41.9711 47.8741 41.4432 47.8741 40.8392C47.8741 40.3079 47.6834 37.3498 47.3021 31.9712C46.9206 26.59 46.73 23.6599 46.73 23.1848Z" fill="white"/>
<path d="M25.8977 38.1411C25.8725 38.1255 25.8725 38.0909 25.8977 38.0407L26.4385 36.9279C26.4731 36.8586 26.5104 36.8275 26.5485 36.8275C26.6048 36.8275 26.8483 36.9746 27.28 37.2685C27.7082 37.5623 27.924 37.7346 27.924 37.7841C27.924 37.9784 27.7332 38.3786 27.3552 38.9915C27.3085 39.0695 27.2609 39.0884 27.2114 39.0511C26.7859 38.7254 26.3483 38.4255 25.8977 38.1411Z" fill="white"/>
<path d="M40.9293 36.9216L41.361 36.0301C41.3955 35.9615 41.4329 35.9302 41.4735 35.9302C41.5298 35.9302 41.7708 36.0768 42.2016 36.3714C42.6305 36.6652 42.8463 36.8368 42.8463 36.887C42.8463 37.0811 42.6557 37.4808 42.277 38.0909C42.2329 38.1663 42.1834 38.1846 42.1332 38.15C41.7612 37.8752 41.3393 37.584 40.8695 37.2779C40.71 37.6342 40.5575 37.9375 40.4041 38.188C40.36 38.266 40.3105 38.285 40.2603 38.2469C39.8347 37.9219 39.3971 37.622 38.9464 37.337C38.9219 37.3213 38.9219 37.2875 38.9464 37.2373L39.4879 36.1237C39.522 36.0551 39.5598 36.024 39.5972 36.0205C39.6502 36.024 39.8564 36.1426 40.2161 36.3869C40.5792 36.6306 40.8167 36.809 40.9293 36.9216Z" fill="white"/>
<path fill-rule="evenodd" clip-rule="evenodd" d="M39.33 32.9498C38.8397 32.695 38.593 32.4281 38.593 32.1486C38.593 31.813 38.7511 31.5047 39.0585 31.2254C39.3704 30.9461 39.6295 30.8416 39.8359 30.918C40.0098 30.9785 40.095 31.1649 40.095 31.4766C40.095 31.7559 40.0379 32.0714 39.9212 32.4202C40.1679 32.5614 40.3262 32.6829 40.3867 32.7802C40.3867 32.9138 40.2769 33.136 40.0547 33.4522C39.994 33.3548 39.8438 33.2336 39.605 33.0877C39.33 33.4681 38.9821 33.8167 38.5613 34.1277C38.0835 34.4801 37.6416 34.747 37.2411 34.9254C37.1601 34.9658 36.6946 35.1442 35.8531 35.4561C35.7195 35.5042 35.6343 35.5289 35.5896 35.5289C35.5693 35.5289 35.5614 35.5211 35.5614 35.5123C35.5614 35.4797 35.6343 35.4156 35.7803 35.3225C36.4029 34.9535 37.0268 34.5811 37.6539 34.2051C38.4032 33.7517 38.9618 33.3346 39.33 32.9498ZM39.6295 32.2664C39.6778 32.1162 39.6866 31.9624 39.6619 31.8088C39.6295 31.6383 39.5521 31.5576 39.4309 31.5576C39.3747 31.5576 39.294 31.5864 39.1964 31.6383C39.0954 31.6954 39.0428 31.748 39.0428 31.8009C39.0428 31.9221 39.2411 32.0802 39.6295 32.2664Z" fill="white"/>
<path fill-rule="evenodd" clip-rule="evenodd" d="M38.656 40.3627C38.656 40.74 38.5273 41.1007 38.2695 41.4414C37.9951 41.8133 37.6705 41.9991 37.3041 41.9991C36.9221 41.9991 36.7306 41.8133 36.7306 41.4414C36.7306 41.1736 36.8808 40.7805 37.1799 40.2698C37.4844 39.7534 37.7431 39.5013 37.9593 39.5013C38.1454 39.5013 38.3111 39.583 38.4499 39.7433C38.5844 39.9091 38.656 40.1152 38.656 40.3627ZM38.3257 40.7862C38.3257 40.4398 38.0837 40.2652 37.6089 40.2652C37.5415 40.2652 37.4285 40.3727 37.2682 40.5901C37.1082 40.8117 37.0308 40.962 37.0308 41.0491C37.0867 41.1736 37.2628 41.2352 37.5673 41.2352C38.0737 41.2352 38.3257 41.085 38.3257 40.7862Z" fill="white"/>
<path d="M36.1447 22.5135C36.3728 22.5135 36.4888 22.6234 36.4888 22.848C36.4888 22.9674 36.4576 23.0923 36.3945 23.2205C36.3537 23.3081 36.2507 23.4486 36.085 23.6487C35.8475 23.9209 35.6915 24.1115 35.61 24.2243C35.4757 24.4027 35.3968 24.493 35.3751 24.493C35.3725 24.493 35.369 24.4868 35.369 24.4807C35.369 24.459 35.3908 24.3992 35.4316 24.2962C35.5224 24.0709 35.6663 23.8455 35.8727 23.6114C35.988 23.4832 36.1101 23.3515 36.2323 23.2205C36.1855 23.1079 36.1134 23.0516 36.0104 23.0516C35.9385 23.0516 35.8475 23.0767 35.7443 23.1296C34.7094 23.6548 33.7119 23.9209 32.7518 23.9209C32.2231 23.9209 31.7447 23.8056 31.3165 23.5768C31.379 23.7769 31.3573 24.0146 31.2506 24.2962C31.21 24.4054 31.1822 24.465 31.1631 24.4678C31.1537 24.4678 31.1476 24.3992 31.1476 24.2649C31.1476 24.0146 31.1068 23.7986 31.0288 23.6175C31.0192 23.5957 30.8883 23.3984 30.6412 23.0325C30.6821 22.7794 30.7444 22.6547 30.8287 22.6547C30.8381 22.6547 30.9006 22.6981 31.0192 22.789C31.1605 22.9043 31.3043 22.9987 31.4509 23.0767C31.8859 23.3048 32.3642 23.4208 32.88 23.4208C33.4242 23.4208 33.9494 23.3426 34.4558 23.1859C34.7529 23.0923 35.1066 22.945 35.5157 22.7448C35.8381 22.5888 36.0478 22.5135 36.1447 22.5135Z" fill="white"/>
<path d="M24.3905 39.6978C24.3905 39.8043 24.2562 40.0418 23.9901 40.4172C23.6868 40.8366 23.3998 41.146 23.1277 41.34C22.9526 41.4615 22.3738 41.6555 21.3891 41.9156C21.214 41.959 21.1258 41.9745 21.1258 41.9651C21.1386 41.9467 21.1977 41.8965 21.3077 41.8117C21.4359 41.712 21.7861 41.5152 22.3581 41.2118C22.9085 40.9207 23.2308 40.7334 23.3244 40.6519C23.34 40.633 23.3496 40.6174 23.3496 40.6017C23.3496 40.4707 22.8583 40.4077 21.883 40.4077C21.8797 40.4077 21.6924 40.4145 21.3198 40.4301C21.1421 40.4395 21.0545 40.4266 21.0545 40.3955C21.0545 40.3703 21.0763 40.3201 21.1197 40.2421L21.4671 39.6544C21.5703 39.4821 21.7548 39.3761 22.0236 39.3294C22.1207 39.3138 22.346 39.307 22.7021 39.307C23.828 39.307 24.3905 39.4352 24.3905 39.6978Z" fill="white"/>
<path d="M29.6881 20.4223C29.6881 20.3347 29.6318 20.256 29.5157 20.1909C29.4004 20.125 29.222 20.0937 28.981 20.0937C28.4246 20.0937 27.8899 20.256 27.3767 20.5878C27.161 20.7256 27.0517 20.8538 27.0517 20.9726C27.0517 21.1192 27.2146 21.2848 27.5336 21.4727C28.0303 21.7007 28.4211 21.8669 28.7062 21.9668C29.1188 22.2076 29.3 22.4233 29.2505 22.6169C29.1127 22.5828 28.7564 22.4668 28.1809 22.2666C27.5336 22.0448 27.1332 21.8853 26.9737 21.7917C26.5985 21.5759 26.361 21.373 26.2578 21.1884C26.2421 21.2474 26.2354 21.3133 26.2354 21.3817C26.2354 21.7571 26.4112 22.0448 26.7579 22.2484C27.1801 22.492 27.9054 22.739 28.9437 22.9893C29.0095 23.005 29.1284 22.9391 29.3 22.7925C29.4906 22.6297 29.5937 22.4668 29.6101 22.3047C29.6379 22.0353 29.4723 21.7978 29.1153 21.5881C29.0502 21.5542 28.8751 21.4821 28.5841 21.3791C28.2962 21.2759 28.0588 21.1694 27.8776 21.0628C27.6368 20.9257 27.518 20.8253 27.5145 20.7594C27.518 20.7221 27.5518 20.691 27.6272 20.6625C27.8491 20.575 28.143 20.522 28.5059 20.503C28.8466 20.4813 29.0563 20.4942 29.1344 20.5376C29.247 20.6658 29.3033 20.7568 29.3 20.8131C29.3406 20.8348 29.441 20.7629 29.6033 20.6C29.6596 20.5437 29.6881 20.4846 29.6881 20.4223Z" fill="white"/>
<path d="M30.3445 33.9447C29.6413 34.2065 28.9454 34.4654 28.257 34.7215L28.2464 34.7255C26.826 35.2539 25.4373 35.7706 24.0811 36.2771C23.984 36.4805 23.9156 36.6652 23.8747 36.8342C24.1096 36.693 25.2381 36.2491 27.2609 35.4953C29.2439 34.7542 30.2475 34.3729 30.2692 34.3477C30.316 34.3132 30.3757 34.2039 30.4476 34.0262C30.4728 33.9697 30.4754 33.9352 30.46 33.9223C30.4476 33.9134 30.4103 33.9223 30.3445 33.9447Z" fill="white"/>
<path d="M21.6941 24.6168C21.9915 24.4154 22.1549 24.2786 22.1841 24.2008C22.2562 24.0087 21.88 23.7607 21.0568 23.4518C20.7957 23.3539 20.6298 23.2973 20.5545 23.2821C20.3446 23.2424 20.181 23.2699 20.0584 23.3671L19.6432 23.7016C19.59 23.7467 19.5599 23.7772 19.553 23.7955C19.5444 23.8184 19.6049 23.8518 19.738 23.8939C20.0142 23.9845 20.1535 24.0311 20.1554 24.0318C20.8691 24.2995 21.211 24.4804 21.1751 24.5762C21.1708 24.5876 21.1595 24.5964 21.1429 24.606C21.0515 24.6397 20.765 24.6884 20.2828 24.7503C19.7813 24.8152 19.4707 24.8629 19.3501 24.9008C19.2464 24.9326 19.1895 24.9531 19.175 24.9631C19.1724 24.9699 19.2408 24.9825 19.3807 24.9988C20.1725 25.079 20.6485 25.0957 20.8097 25.0549C21.062 24.9877 21.3572 24.8404 21.6941 24.6168Z" fill="white"/>
<path d="M21.428 28.0608C21.4216 27.6995 21.3669 27.4609 21.2682 27.3401C21.0607 27.0861 20.6745 27.144 20.1057 27.5101C20.0114 27.5771 19.9726 27.6188 19.9881 27.6378C19.9979 27.6498 20.0888 27.6526 20.2594 27.6477C20.4307 27.6423 20.5336 27.6612 20.5715 27.7076C20.6478 27.801 20.6766 27.9363 20.6585 28.117C20.3849 27.9329 20.177 27.8237 20.0289 27.7948C19.7279 27.7359 19.4109 27.8403 19.0859 28.1058C18.9865 28.187 18.6648 28.5639 18.1168 29.238C17.5684 29.9131 17.0639 30.4442 16.5963 30.8262C16.3141 31.0567 16.1828 31.1852 16.2004 31.2067C16.2162 31.2138 16.2719 31.1941 16.3741 31.1476C16.664 30.9982 16.9283 30.8282 17.1668 30.6334C17.9776 29.9711 18.6842 29.1619 19.2889 28.2089C19.4777 28.2193 19.713 28.3115 19.9934 28.4901L20.0175 28.5076L20.0184 28.5082C20.2241 28.6573 20.4303 28.8067 20.6368 28.9499C20.6664 28.9673 20.7727 28.9521 20.9574 28.8999C21.141 28.8529 21.2474 28.8118 21.2786 28.7817C21.3854 28.6586 21.4379 28.42 21.428 28.0608Z" fill="white"/>
<path d="M50.1055 27.1621C50.3898 26.721 50.5337 26.3274 50.5337 25.98C50.5337 25.5111 50.3464 25.2797 49.9739 25.2797C49.5266 25.2797 49.2424 25.5641 49.1175 26.1333C49.0986 26.2487 49.0862 26.3206 49.0769 26.3491C49.0986 26.3552 49.114 26.3647 49.1297 26.3769C49.1488 26.3708 49.199 26.3396 49.2798 26.2867C49.3896 26.2113 49.5112 26.174 49.6461 26.174C49.8932 26.174 50.0146 26.305 50.0146 26.571C50.0146 26.8493 49.6333 27.4031 48.8733 28.2316C48.7206 28.4006 48.6419 28.5003 48.6419 28.5253C48.6419 28.5316 48.6452 28.5376 48.6512 28.5376C48.686 28.5376 48.7925 28.4725 48.9763 28.3441C49.4365 28.0191 49.8145 27.6249 50.1055 27.1621Z" fill="white"/>
<path d="M38.6755 47.0833C38.425 46.7079 38.1407 46.5206 37.8252 46.5206C37.7906 46.5206 37.7091 46.6266 37.5781 46.8456C37.4465 47.0642 37.3841 47.1926 37.3841 47.2304C37.3841 47.3147 37.4595 47.43 37.6155 47.5711C37.7715 47.7116 37.8971 47.7836 37.9942 47.7836C38.0783 47.7836 38.1285 47.7618 38.1469 47.7245C38.1624 47.6838 38.2032 47.6647 38.2656 47.6647C38.3566 47.6647 38.5065 47.9335 38.7223 48.475C38.938 49.0159 39.0447 49.3783 39.0447 49.5663C39.0447 49.6849 39.0664 49.744 39.1131 49.744C39.1634 49.744 39.2259 49.6789 39.2978 49.5472C39.4008 49.3566 39.4945 49.0281 39.5794 48.5625C39.77 47.4959 39.9797 46.9612 40.2043 46.9612C40.3075 46.9612 40.4079 47.0208 40.5015 47.1429C40.5986 47.2645 40.661 47.3269 40.6895 47.3269C40.7581 47.3269 40.8179 47.2461 40.8674 47.0894C40.908 46.9705 40.927 46.8736 40.927 46.7989C40.927 46.7018 40.8707 46.5797 40.7581 46.4263C40.6271 46.2513 40.4989 46.1638 40.3672 46.1638C40.1141 46.1638 39.8793 46.4202 39.6635 46.936C39.4667 47.6526 39.3418 48.1934 39.2916 48.5558C39.282 48.5797 39.2744 48.6 39.2682 48.6164C39.2581 48.6432 39.2518 48.6598 39.2476 48.6657C39.2413 48.684 39.2353 48.684 39.2231 48.6657C39.2231 48.6596 39.2203 48.6419 39.2158 48.6133L39.2122 48.5907L39.2092 48.5719L39.2068 48.5558C39.1036 47.9491 38.9286 47.4585 38.6755 47.0833Z" fill="white"/>
<path d="M49.9623 31.3992C49.7465 30.9833 49.5308 30.7769 49.315 30.7769C49.2898 30.7769 49.2308 30.8551 49.1364 31.0111C49.0463 31.1678 48.9994 31.2614 48.9994 31.2901C48.9994 31.349 49.0557 31.4305 49.1649 31.5336C49.2777 31.6334 49.3678 31.687 49.4372 31.687C49.4995 31.687 49.5341 31.6714 49.5464 31.6429C49.5593 31.6151 49.5871 31.6021 49.634 31.6021C49.6936 31.6021 49.8152 31.8682 49.9936 32.4062C50.1687 32.9281 50.2562 33.2566 50.2562 33.397C50.2562 33.4819 50.2717 33.5254 50.303 33.5254C50.341 33.5254 50.3845 33.4785 50.4374 33.3848C50.5127 33.2445 50.5785 33.0096 50.6409 32.675C50.8316 31.6212 51.0032 31.0959 51.154 31.0959C51.226 31.0959 51.2979 31.1393 51.3663 31.2243C51.4349 31.3118 51.4791 31.3552 51.5008 31.3552C51.551 31.3552 51.5916 31.2988 51.629 31.1834C51.6568 31.0987 51.6731 31.03 51.6731 30.9772C51.6731 30.9079 51.6325 30.8177 51.551 30.7078C51.4574 30.5829 51.363 30.5205 51.2694 30.5205C51.0847 30.5205 50.9159 30.705 50.7632 31.0742C50.6002 31.7338 50.4909 32.2652 50.4312 32.6689L50.4262 32.683C50.4223 32.6941 50.4188 32.7039 50.4159 32.7124C50.4093 32.7311 50.4051 32.7432 50.4034 32.7469C50.3966 32.7593 50.3905 32.7593 50.3844 32.7469C50.3844 32.7464 50.3844 32.7457 50.3843 32.7449L50.384 32.7422C50.3834 32.7382 50.3825 32.7324 50.3812 32.7249C50.3788 32.7114 50.3755 32.6921 50.3723 32.6689C50.2934 32.1993 50.1564 31.7772 49.9623 31.3992Z" fill="white"/>
<path d="M50.6364 37.7603C50.4674 37.9258 50.289 38.0073 50.0982 38.0073C49.6856 38.0073 49.4794 37.7792 49.4794 37.3253C49.4794 36.916 49.6702 36.4315 50.0576 35.8683C50.3955 35.3681 50.7144 35.0242 51.0144 34.843C51.0742 34.8082 51.1114 34.8117 51.127 34.8524C51.1461 34.8993 51.1305 34.9522 51.0742 35.0146C50.8454 35.2243 50.614 35.5087 50.3826 35.8683C50.1269 36.2564 49.9985 36.5408 49.9952 36.7254C50.1112 36.6283 50.2483 36.5814 50.405 36.5814C50.7552 36.5814 50.933 36.7376 50.933 37.0505C50.933 37.3347 50.8332 37.573 50.6364 37.7603Z" fill="white"/>
<path d="M26.7864 48.3047C27.0239 47.9356 27.1427 47.6071 27.1427 47.3194C27.1427 46.9285 26.9865 46.7345 26.6771 46.7345C26.3019 46.7345 26.067 46.9726 25.9638 47.4476C25.9484 47.5447 25.9361 47.6038 25.9293 47.6262C25.9484 47.6323 25.9606 47.6383 25.9734 47.6512C25.989 47.6444 26.0325 47.6199 26.0983 47.576C26.1893 47.5134 26.2924 47.4823 26.4051 47.4823C26.608 47.4823 26.711 47.5914 26.711 47.8107C26.711 48.0448 26.3922 48.5049 25.7611 49.1958C25.6294 49.3361 25.5669 49.4211 25.5669 49.4428C25.5669 49.4489 25.5669 49.4522 25.573 49.4522C25.6016 49.4522 25.6918 49.3959 25.8452 49.2894C26.23 49.0172 26.5429 48.6888 26.7864 48.3047Z" fill="white"/>
<path d="M35.7598 50.04C35.7721 50.014 35.7821 49.9969 35.7944 49.9903C35.801 49.9817 35.8062 49.9833 35.8096 49.9955C35.8147 50.0055 35.8147 50.0244 35.8096 50.05C35.7839 50.2622 35.7242 50.4518 35.63 50.6176C35.5342 50.7853 35.4319 50.8688 35.3205 50.8688C35.1993 50.8725 35.1054 50.8091 35.042 50.6792C34.9789 50.5494 34.9515 50.375 34.9599 50.1561C34.9704 49.886 35.0746 49.4876 35.2713 48.9645C35.4419 48.5048 35.5891 48.1798 35.7156 47.9865C35.7721 47.9012 35.8077 47.8567 35.8266 47.8534C35.83 47.867 35.8147 47.9183 35.7773 48.0021C35.4982 48.6228 35.3191 49.1236 35.2367 49.5047C35.2026 49.6567 35.1874 49.7955 35.1874 49.9169C35.1874 50.0878 35.2182 50.2159 35.2812 50.3015C35.3291 50.3717 35.3789 50.4006 35.4319 50.3902C35.5395 50.368 35.6489 50.2519 35.7598 50.04Z" fill="white"/>
<path fill-rule="evenodd" clip-rule="evenodd" d="M39.4592 7.2723L32.8335 0L26.2077 7.2723L16.8335 4.28719L14.7316 13.8981L5.12068 16L8.10579 25.3742L0.833496 32L8.10579 38.6258L5.12068 48L14.7316 50.1019L16.8335 59.7128L26.2077 56.7277L32.8335 64L39.4592 56.7277L48.8335 59.7128L50.9354 50.1019L60.5463 48L57.5612 38.6258L64.8335 32L57.5612 25.3742L60.5463 16L50.9354 13.8981L48.8335 4.28719L39.4592 7.2723ZM19.6483 9.16252L27.3733 11.6225L32.8335 5.62955L38.2936 11.6225L46.0187 9.16252L47.7508 17.0826L55.6709 18.8148L53.211 26.5399L59.2039 32L53.211 37.4601L55.6709 45.1852L47.7508 46.9174L46.0187 54.8375L38.2936 52.3775L32.8335 58.3705L27.3733 52.3775L19.6483 54.8375L17.9161 46.9174L9.99601 45.1852L12.456 37.4601L6.46304 32L12.456 26.5399L9.99601 18.8148L17.9161 17.0826L19.6483 9.16252Z" fill="white"/>
</svg>
